<svg width="54" height="54" viewBox="0 0 54 54" fill="none" xmlns="http://www.w3.org/2000/svg">
<g clip-path="url(#clip0_0_1)">
<path d="M24.732 47.9599C23.8014 46.2003 20.5697 44.2925 20.4274 44.209C20.0121 43.9727 19.5788 43.8475 19.1733 43.8475C18.5703 43.8475 18.0768 44.1238 17.7778 44.6262C17.3051 45.1917 16.7188 45.8527 16.5766 45.9551C15.4754 46.7023 14.6134 46.6175 13.6596 45.6636L8.33634 40.3391C7.38857 39.3912 7.30145 38.5184 8.04344 37.4231C8.14725 37.2799 8.80814 36.6931 9.37355 36.2198C9.73412 36.0052 9.9816 35.6863 10.0901 35.2951C10.2342 34.7745 10.1281 34.1622 9.78788 33.5657C9.7077 33.4285 7.7992 30.1959 6.04085 29.2656C5.71272 29.0918 5.34289 29 4.97212 29C4.36129 29 3.78661 29.2382 3.35467 29.6698L2.17842 30.8457C0.318113 32.7058 -0.355286 34.8144 0.175832 37.1125C0.618895 39.0278 1.91008 41.0659 4.01416 43.1698L10.8293 49.9859C13.4923 52.6493 16.0311 54 18.3752 54C18.3752 54 18.3752 54 18.3757 54C20.0997 54 21.707 53.2672 23.1516 51.8224L24.3274 50.6464C25.042 49.9321 25.2042 48.8521 24.732 47.9599Z" fill="black"/>
</g>
<defs>
<clipPath id="clip0_0_1">
<rect width="53.942" height="53.942" fill="white"/>
</clipPath>
</defs>
</svg>
