<svg width="52" height="52" viewBox="0 0 52 52" fill="none" xmlns="http://www.w3.org/2000/svg">
<path d="M26 0C11.6638 0 0 11.6638 0 26C0 40.3362 11.6638 52 26 52C40.3362 52 52 40.3362 52 26C52 11.6638 40.3362 0 26 0ZM26 49.8334C12.8582 49.8334 2.16663 39.1419 2.16663 26C2.16663 12.8584 12.8582 2.16663 26 2.16663C39.1418 2.16663 49.8334 12.8583 49.8334 26C49.8334 39.1419 39.1418 49.8334 26 49.8334Z" fill="#FF0000"/>
<path d="M41.0545 24.9898H9.63788V27.1564H41.0545V24.9898Z" fill="#FF0000"/>
</svg>
