<?xml version="1.0" encoding="iso-8859-1"?>
<!-- Generator: Adobe Illustrator 19.0.0, SVG Export Plug-In . SVG Version: 6.00 Build 0)  -->
<svg version="1.1" id="Layer_1" xmlns="http://www.w3.org/2000/svg" xmlns:xlink="http://www.w3.org/1999/xlink" x="0px" y="0px"
	 viewBox="0 0 512 512" style="enable-background:new 0 0 512 512;" xml:space="preserve">
<g>
	<g>
		<path d="M149.299,181.001c-2.202-3.311-5.163-5.931-8.499-7.868V74.445c14.865-5.299,25.6-19.379,25.6-36.045
			C166.4,17.229,149.171,0,128,0S89.6,17.229,89.6,38.4c0,16.666,10.735,30.737,25.6,36.045v98.697
			c-3.337,1.937-6.298,4.557-8.499,7.868C97.084,195.413,12.8,323.951,12.8,396.8C12.8,460.322,64.478,512,128,512
			s115.2-51.678,115.2-115.2C243.2,323.951,158.916,195.413,149.299,181.001z M128,25.6c7.066,0,12.8,5.726,12.8,12.8
			c0,7.066-5.734,12.8-12.8,12.8s-12.8-5.734-12.8-12.8C115.2,31.326,120.934,25.6,128,25.6z M128,198.076c0,0,64,96,64,144
			c0,35.354-28.655,64-64,64s-64-28.655-64-64C64,294.076,128,198.076,128,198.076z M128,486.4c-49.485,0-89.6-40.115-89.6-89.6
			c0-8.713,1.553-18.586,4.181-29.116c11.093,36.881,44.971,63.991,85.419,63.991s74.325-27.11,85.419-63.991
			c2.62,10.53,4.181,20.403,4.181,29.116C217.6,446.285,177.485,486.4,128,486.4z"/>
	</g>
</g>
<g>
	<g>
		<path d="M405.299,181.001c-2.21-3.311-5.163-5.931-8.499-7.868V74.445c14.865-5.299,25.6-19.379,25.6-36.045
			C422.4,17.229,405.171,0,384,0c-21.171,0-38.4,17.229-38.4,38.4c0,16.666,10.735,30.737,25.6,36.045v98.697
			c-3.336,1.937-6.298,4.557-8.499,7.868C353.084,195.413,268.8,323.951,268.8,396.8c0,63.522,51.678,115.2,115.2,115.2
			s115.2-51.678,115.2-115.2C499.2,323.951,414.916,195.413,405.299,181.001z M384,25.6c7.066,0,12.8,5.726,12.8,12.8
			c0,7.066-5.734,12.8-12.8,12.8c-7.066,0-12.8-5.734-12.8-12.8C371.2,31.326,376.934,25.6,384,25.6z M384,198.076c0,0,64,96,64,144
			c0,35.345-28.655,64-64,64c-35.345,0-64-28.655-64-64C320,294.076,384,198.076,384,198.076z M384,486.4
			c-49.485,0-89.6-40.115-89.6-89.6c0-8.713,1.553-18.586,4.181-29.116c11.093,36.881,44.971,63.991,85.419,63.991
			c40.448,0,74.325-27.119,85.419-63.991c2.62,10.53,4.181,20.403,4.181,29.116C473.6,446.285,433.485,486.4,384,486.4z"/>
	</g>
</g>
<g>
</g>
<g>
</g>
<g>
</g>
<g>
</g>
<g>
</g>
<g>
</g>
<g>
</g>
<g>
</g>
<g>
</g>
<g>
</g>
<g>
</g>
<g>
</g>
<g>
</g>
<g>
</g>
<g>
</g>
</svg>
