<?xml version="1.0" encoding="iso-8859-1"?>
<!-- Generator: Adobe Illustrator 16.0.0, SVG Export Plug-In . SVG Version: 6.00 Build 0)  -->
<!DOCTYPE svg PUBLIC "-//W3C//DTD SVG 1.1//EN" "http://www.w3.org/Graphics/SVG/1.1/DTD/svg11.dtd">
<svg version="1.1" id="Capa_1" xmlns="http://www.w3.org/2000/svg" xmlns:xlink="http://www.w3.org/1999/xlink" x="0px" y="0px"
	 width="486.724px" height="486.724px" viewBox="0 0 486.724 486.724" style="enable-background:new 0 0 486.724 486.724;"
	 xml:space="preserve">
<g>
	<g>
		<path d="M268.675,223.341c-5.257-13.872-14.427-22.71-25.314-22.71c-10.882,0-20.051,8.838-25.311,22.71
			C92.533,214.935,15.701,143.182,15.701,31.838H0c0,94.91,56.983,195.907,214.191,206.994c-0.583,4.078-0.92,8.357-0.92,12.826
			c0,1.955,0.068,3.879,0.181,5.759c-5.589-1.476-11.423-2.316-17.477-2.316c-38.041,0-68.878,30.833-68.878,68.875
			c0,2.236,0.118,4.461,0.337,6.669c0.376,3.938,1.146,7.75,2.158,11.469c0.165,0.629,0.307,1.259,0.487,1.888
			c0.15,0.489,0.323,0.958,0.479,1.438c19.182,61.41,112.803,109.447,112.803,109.447s93.621-48.037,112.805-109.447
			c0.152-0.48,0.329-0.949,0.474-1.438c0.184-0.629,0.324-1.259,0.492-1.888c1.01-3.719,1.775-7.53,2.16-11.469
			c0.217-2.208,0.337-4.433,0.337-6.669c0-38.042-30.841-68.875-68.872-68.875c-6.059,0-11.901,0.85-17.48,2.316
			c0.121-1.888,0.185-3.804,0.185-5.759c0-4.469-0.337-8.745-0.922-12.826c157.199-11.086,214.186-112.084,214.186-206.994h-15.701
			C471.023,143.182,394.188,214.935,268.675,223.341z M243.361,216.324c2.517,0,5.582,2.859,8.251,7.714
			c-2.736,0.058-5.462,0.134-8.251,0.134c-2.787,0-5.512-0.076-8.25-0.134C237.78,219.183,240.842,216.324,243.361,216.324z
			 M256.593,264.285c-4.785,2.749-9.253,6.003-13.232,9.782c-3.979-3.779-8.448-7.033-13.236-9.782
			c-0.689-3.859-1.152-8.035-1.152-12.627c0-4.364,0.433-8.33,1.068-12.029c4.386,0.134,8.791,0.252,13.321,0.252
			c4.532,0,8.94-0.118,13.325-0.252c0.629,3.699,1.065,7.665,1.065,12.029C257.751,256.242,257.283,260.425,256.593,264.285z"/>
	</g>
</g>
<g>
</g>
<g>
</g>
<g>
</g>
<g>
</g>
<g>
</g>
<g>
</g>
<g>
</g>
<g>
</g>
<g>
</g>
<g>
</g>
<g>
</g>
<g>
</g>
<g>
</g>
<g>
</g>
<g>
</g>
</svg>
