<?xml version="1.0" encoding="iso-8859-1"?>
<!-- Generator: Adobe Illustrator 17.1.0, SVG Export Plug-In . SVG Version: 6.00 Build 0)  -->
<!DOCTYPE svg PUBLIC "-//W3C//DTD SVG 1.1//EN" "http://www.w3.org/Graphics/SVG/1.1/DTD/svg11.dtd">
<svg version="1.1" id="Capa_1" xmlns="http://www.w3.org/2000/svg" xmlns:xlink="http://www.w3.org/1999/xlink" x="0px" y="0px"
	 viewBox="0 0 195.877 195.877" style="enable-background:new 0 0 195.877 195.877;" xml:space="preserve">
<path d="M130.877,170.565c-13.476,0-26.308-4.051-37.261-11.74c-9.786,7.368-21.951,11.74-35.116,11.74
	c-32.257,0-58.5-26.243-58.5-58.5C0,84.49,19.176,61.31,44.894,55.163L32.016,40.556c-0.454-0.51-0.737-1.177-0.758-1.909
	c-0.002-0.083-0.001-0.165,0.003-0.248c0.002-0.002,0.001-0.003,0.001-0.005c0.031-0.561,0.215-1.079,0.512-1.516l6.728-10.217
	c0.556-0.843,1.497-1.35,2.506-1.35h34.985c1.009,0,1.95,0.507,2.506,1.35l6.727,10.216c0.309,0.453,0.496,0.995,0.516,1.58
	c0,0.003,0,0.005,0,0.008l0,0c0.002,0.042,0.002,0.084,0.002,0.125c0,0.001,0,0.001,0,0.001c0,0.002,0,0.003,0,0.005
	c-0.009,0.752-0.294,1.438-0.758,1.959L72.105,55.162c4.429,1.06,8.663,2.623,12.64,4.628
	c12.162-12.245,28.844-19.225,46.132-19.225c35.841,0,65,29.159,65,65S166.718,170.565,130.877,170.565z M98.405,154.83
	c9.639,6.381,20.789,9.735,32.472,9.735c32.532,0,59-26.468,59-59s-26.468-59-59-59c-15.148,0-29.785,5.905-40.713,16.314
	c1.672,1.08,3.293,2.248,4.853,3.497c9.818-9.008,22.447-13.937,35.86-13.937c29.293,0,53.125,23.832,53.125,53.125
	s-23.832,53.125-53.125,53.125c-10.099,0-19.827-2.818-28.306-8.176C101.254,152.026,99.862,153.466,98.405,154.83z M50.942,60.107
	C25.561,63.782,6,85.682,6,112.065c0,28.948,23.552,52.5,52.5,52.5s52.5-23.552,52.5-52.5c0-26.383-19.56-48.283-44.941-51.957
	L58.5,59.573L50.942,60.107z M106.295,145.764c7.395,4.54,15.831,6.926,24.582,6.926c25.984,0,47.125-21.141,47.125-47.125
	S156.861,58.44,130.877,58.44c-11.692,0-22.714,4.223-31.357,11.954C110.304,81.011,117,95.771,117,112.065
	C117,124.602,113.035,136.231,106.295,145.764z M40.901,41.562l10.918,12.382c2.192-0.25,4.423-0.379,6.681-0.379l0,0l0,0
	c2.258,0,4.487,0.129,6.68,0.379l10.918-12.382H40.901z M39.824,35.562h37.351l-2.799-4.25H42.623L39.824,35.562z M58.5,159.935
	c-26.396,0-47.87-21.475-47.87-47.87s21.475-47.87,47.87-47.87c7.729,0,15.037,1.842,21.507,5.109
	c0.031,0.014,0.062,0.029,0.093,0.045c3.798,1.924,7.314,4.334,10.452,7.165c0.085,0.076,0.164,0.157,0.238,0.24
	c9.57,8.759,15.58,21.346,15.58,35.311c0,10.926-3.68,21.01-9.865,29.075c-0.043,0.066-0.089,0.131-0.138,0.194
	c-2.604,3.364-5.631,6.362-8.999,8.912c-0.083,0.063-0.169,0.122-0.257,0.175C79.124,156.395,69.219,159.935,58.5,159.935z
	 M58.5,70.195c-23.087,0-41.87,18.783-41.87,41.87s18.783,41.87,41.87,41.87c8.307,0,16.056-2.431,22.573-6.62
	c-9.823-11.698-15.196-26.394-15.196-41.75c0-11.354,2.948-22.422,8.556-32.221C69.519,71.315,64.138,70.195,58.5,70.195z
	 M79.809,76.033c-5.198,8.964-7.932,19.115-7.932,29.532c0,14.049,4.954,27.488,14.008,38.148c1.485-1.287,2.88-2.677,4.172-4.157
	c-7.954-9.537-12.305-21.507-12.305-33.991c0-9.212,2.379-18.207,6.901-26.175C83.123,78.162,81.504,77.04,79.809,76.033z
	 M89.185,83.606c-3.563,6.749-5.433,14.268-5.433,21.959c0,10.596,3.533,20.773,10.019,29.043c4.176-6.512,6.6-14.25,6.6-22.543
	C100.37,101.086,96.123,91.081,89.185,83.606z"/>
<g>
</g>
<g>
</g>
<g>
</g>
<g>
</g>
<g>
</g>
<g>
</g>
<g>
</g>
<g>
</g>
<g>
</g>
<g>
</g>
<g>
</g>
<g>
</g>
<g>
</g>
<g>
</g>
<g>
</g>
</svg>
