<svg width="212" height="212" viewBox="0 0 212 212" fill="none" xmlns="http://www.w3.org/2000/svg">
<g clip-path="url(#clip0_0_1)">
<path d="M90.396 139.128L110.968 126.378L103.408 114.185C107.283 110.278 110.554 105.735 113.06 100.693L127.057 103.968L132.56 80.387L118.569 77.112C118.557 71.544 117.659 66.047 115.885 60.769L128.114 53.186L115.353 32.625L103.129 40.203C99.19 36.287 94.662 33.024 89.673 30.557L92.953 16.557L69.38 11.035L66.114 24.993C60.41 25.005 54.898 25.948 49.735 27.661L42.175 15.482L21.61 28.242L29.164 40.415C25.289 44.325 22.015 48.864 19.509 53.906L5.528 50.626L0 74.207L14 77.493C14.006 83.061 14.907 88.558 16.684 93.827L4.452 101.408L17.204 121.986L29.442 114.403C33.376 118.315 37.898 121.579 42.883 124.055L39.603 138.057L63.178 143.578L66.452 129.605C72.153 129.593 77.668 128.647 82.831 126.933L90.396 139.128ZM38.925 70.896C41.922 58.117 53.155 49.189 66.247 49.189C68.402 49.189 70.574 49.437 72.699 49.934C80.011 51.642 86.208 56.108 90.165 62.476C94.125 68.848 95.361 76.39 93.646 83.702C90.649 96.478 79.41 105.407 66.318 105.407C64.164 105.407 61.997 105.153 59.866 104.657C52.56 102.958 46.363 98.489 42.4 92.117C38.441 85.741 37.211 78.202 38.925 70.896ZM172.222 154.756L177.553 151.452L167.995 136.013L162.645 139.324C161.132 137.988 159.495 136.805 157.722 135.777L159.159 129.666L141.479 125.516L140.061 131.575C137.992 131.7 135.982 132.03 134.02 132.551L130.745 127.279L115.318 136.855L118.546 142.044C117.204 143.58 116.052 145.282 115.011 147.079L108.983 145.679L104.834 163.352L110.934 164.777C111.064 166.81 111.383 168.797 111.91 170.77L106.597 174.069L116.172 189.496L121.48 186.198C123.017 187.552 124.66 188.727 126.421 189.744L124.99 195.844L142.67 199.983L144.082 193.93C146.151 193.799 148.161 193.481 150.123 192.96L153.397 198.238L168.825 188.669L165.597 183.467C166.951 181.931 168.103 180.229 169.131 178.432L175.16 179.838L179.309 162.159L173.203 160.734C173.067 158.687 172.748 156.7 172.222 154.756ZM154.921 165.768C153.283 172.743 146.179 177.247 139.068 175.591C135.651 174.781 132.731 172.695 130.881 169.704C129.019 166.725 128.451 163.19 129.243 159.75C130.65 153.751 135.929 149.548 142.057 149.548C143.074 149.548 144.078 149.679 145.072 149.903C152.167 151.594 156.576 158.687 154.921 165.768ZM199.961 95.663L208.247 97.599L211.014 85.816L202.751 83.883C202.81 80.531 202.26 77.21 201.131 74.062L208.355 69.576L201.965 59.294L194.747 63.772C192.419 61.375 189.687 59.407 186.661 57.967L188.6 49.707L176.814 46.941L174.887 55.183C174.744 55.183 174.591 55.16 174.444 55.16C171.151 55.16 167.977 55.722 165.016 56.765L160.588 49.604L150.298 55.975L154.777 63.216C152.414 65.521 150.439 68.225 148.991 71.296L140.698 69.357L137.944 81.143L146.195 83.073C146.136 86.427 146.685 89.743 147.814 92.897L140.603 97.377L146.993 107.653L154.198 103.182C156.533 105.578 159.258 107.55 162.284 108.989L160.357 117.253L172.131 120.02L174.069 111.768C174.217 111.768 174.365 111.791 174.507 111.791C177.793 111.791 180.962 111.229 183.929 110.189L188.368 117.359L198.646 110.963L194.166 103.737C196.533 101.443 198.501 98.73 199.961 95.663ZM158.692 79.786C160.43 72.41 166.896 67.265 174.451 67.265C175.698 67.265 176.951 67.41 178.175 67.694C182.395 68.687 185.965 71.252 188.246 74.928C190.528 78.602 191.249 82.952 190.256 87.172C188.246 95.749 179.486 101.305 170.775 99.239C166.566 98.252 162.985 95.681 160.703 92.007C158.42 88.333 157.711 83.992 158.692 79.786Z" fill="black"/>
</g>
<defs>
<clipPath id="clip0_0_1">
<rect width="211.014" height="211.015" fill="white"/>
</clipPath>
</defs>
</svg>
