<svg width="25" height="25" viewBox="0 0 25 25" fill="none" xmlns="http://www.w3.org/2000/svg">
<path d="M4.86667 5.41666L4.51958 3.33333H3.27375C3.08792 2.61666 2.44125 2.08333 1.66667 2.08333C0.7475 2.08333 0 2.83083 0 3.74999C0 4.66916 0.7475 5.41666 1.66667 5.41666C2.44125 5.41666 3.08792 4.88333 3.27417 4.16666H3.81333L4.02167 5.41666H4.00583L6.16042 16.2567C5.13333 16.335 4.27792 17.1258 4.17708 18.1208C4.11792 18.7062 4.31042 19.2925 4.70542 19.7283C5.10083 20.1654 5.66417 20.4167 6.25 20.4167H7.08333C7.08333 21.7954 8.20458 22.9167 9.58333 22.9167C10.9621 22.9167 12.0833 21.7954 12.0833 20.4167H16.6667C16.6667 21.7954 17.7879 22.9167 19.1667 22.9167C20.5454 22.9167 21.6667 21.7954 21.6667 20.4167H23.3333C23.5637 20.4167 23.75 20.2304 23.75 20C23.75 19.7696 23.5637 19.5833 23.3333 19.5833H21.5208C21.1767 18.6137 20.2529 17.9167 19.1667 17.9167C18.0804 17.9167 17.1567 18.6137 16.8125 19.5833H11.9375C11.5933 18.6137 10.6696 17.9167 9.58333 17.9167C8.49708 17.9167 7.57333 18.6137 7.22917 19.5833H6.25C5.89917 19.5833 5.56167 19.4325 5.32333 19.1696C5.08292 18.9033 4.97 18.5608 5.00625 18.2046C5.06958 17.5758 5.65042 17.0837 6.32833 17.0837H6.65792C6.66375 17.0837 6.66833 17.0837 6.67417 17.0837H22.9217C24.0679 17.0833 25 16.1512 25 15.0054V5.41666H4.86667ZM1.66667 4.58333C1.20708 4.58333 0.833333 4.20958 0.833333 3.74999C0.833333 3.29041 1.20708 2.91666 1.66667 2.91666C2.12625 2.91666 2.5 3.29041 2.5 3.74999C2.5 4.20958 2.12625 4.58333 1.66667 4.58333ZM19.1667 18.75C20.0858 18.75 20.8333 19.4975 20.8333 20.4167C20.8333 21.3358 20.0858 22.0833 19.1667 22.0833C18.2475 22.0833 17.5 21.3358 17.5 20.4167C17.5 19.4975 18.2475 18.75 19.1667 18.75ZM9.58333 18.75C10.5025 18.75 11.25 19.4975 11.25 20.4167C11.25 21.3358 10.5025 22.0833 9.58333 22.0833C8.66417 22.0833 7.91667 21.3358 7.91667 20.4167C7.91667 19.4975 8.66417 18.75 9.58333 18.75ZM24.1667 15.0054C24.1667 15.6917 23.6083 16.25 22.9221 16.25H7.00875L5.02125 6.25H24.1667V15.0054Z" fill="black"/>
</svg>
